<?xml version="1.0" encoding="UTF-8"?>
<svg width="92px" height="92px" viewBox="0 0 92 92" version="1.1" xmlns="http://www.w3.org/2000/svg" xmlns:xlink="http://www.w3.org/1999/xlink">
    <!-- Generator: Sketch 50.2 (55047) - http://www.bohemiancoding.com/sketch -->
    <title>Group</title>
    <desc>Created with Sketch.</desc>
    <defs></defs>
    <g id="Page-1" stroke="none" stroke-width="1" fill="none" fill-rule="evenodd">
        <g id="noun_Pizza-empty_1669372" transform="translate(0.000000, 0.000000)" fill="#000000" fill-rule="nonzero">
            <g id="Group">
                <path d="M16.2988281,80.3535156 C16.9111328,80.8828125 17.5361328,81.3955078 18.1757812,81.8925781 L18.6660156,81.2597656 C18.0380859,80.7724609 17.4228515,80.2675781 16.8222656,79.7480468 L16.2988281,80.3535156 Z" id="Shape"></path>
                <path d="M13.1816406,14.6113281 L13.7597656,15.1640625 C14.3095703,14.5908203 14.8740234,14.03125 15.453125,13.4863281 L14.9042969,12.9042968 C14.3154297,13.4570313 13.7412109,14.0263672 13.1816406,14.6113281 Z" id="Shape"></path>
                <path d="M16.640625,11.3554688 L17.1582031,11.9648438 C17.7636719,11.4511719 18.3828125,10.9541016 19.0166015,10.4736329 L18.5322265,9.8369141 C17.8886719,10.3251953 17.2578125,10.8320313 16.640625,11.3554688 Z" id="Shape"></path>
                <path d="M7.3691406,22.1181641 L8.0488281,22.538086 C8.4677734,21.8613282 8.9042969,21.1962891 9.3574219,20.5449219 L8.7011719,20.0878906 C8.2402344,20.7509766 7.7958984,21.4277344 7.3691406,22.1181641 Z" id="Shape"></path>
                <path d="M20.0507812,83.2724609 C20.7138671,83.7333984 21.390625,84.1787109 22.0791015,84.6064453 L22.5009765,83.9267578 C21.8242187,83.5068359 21.1591796,83.0693359 20.5078124,82.6162109 L20.0507812,83.2724609 Z" id="Shape"></path>
                <path d="M12.8730469,77.0615234 C13.4257813,77.6513672 13.9951172,78.227539 14.5800782,78.7871093 L15.1328126,78.2089843 C14.5595704,77.6591796 14.0000001,77.0947265 13.4570313,76.5146484 L12.8730469,77.0615234 Z" id="Shape"></path>
                <path d="M10.0791016,18.2119141 L10.7119141,18.7021485 C11.1982422,18.0732422 11.7021485,17.4570313 12.2216797,16.8564454 L11.6162109,16.3330079 C11.0869141,16.9453125 10.5751953,17.5712891 10.0791016,18.2119141 Z" id="Shape"></path>
                <path d="M9.8095703,73.4326172 C10.2978516,74.0761719 10.8037109,74.7080078 11.3251953,75.3251953 L11.9365234,74.8076172 C11.4228515,74.2021484 10.9267578,73.5820313 10.446289,72.9482422 L9.8095703,73.4326172 Z" id="Shape"></path>
                <path d="M28.7597656,3.9814453 L29.0625,4.7216797 C29.7949219,4.421875 30.5361328,4.1396484 31.2871094,3.8789063 L31.0234375,3.1230469 C30.2587891,3.3896484 29.5039062,3.6757813 28.7597656,3.9814453 Z" id="Shape"></path>
                <path d="M20.4169922,8.4785156 L20.8681641,9.1386719 C21.5234375,8.6914063 22.1914063,8.2617188 22.8701172,7.8496094 L22.4560547,7.1660156 C21.7636719,7.5859375 21.0839844,8.0234375 20.4169922,8.4785156 Z" id="Shape"></path>
                <path d="M28.3720703,87.8554688 C29.1162109,88.1689454 29.8720703,88.4638672 30.6376953,88.7392579 L30.9072266,87.9853516 C30.1552735,87.7158203 29.413086,87.4267578 28.6826172,87.1191407 L28.3720703,87.8554688 Z" id="Shape"></path>
                <path d="M32.8457031,89.46875 C33.6171875,89.7001953 34.3974609,89.9130859 35.1865234,90.1054688 L35.3759765,89.328125 C34.6005859,89.1396484 33.8339843,88.9306641 33.0761718,88.703125 L32.8457031,89.46875 Z" id="Shape"></path>
                <path d="M24.4716797,6.0107422 L24.850586,6.7158203 C25.5488282,6.3398437 26.256836,5.9814453 26.975586,5.6425781 L26.6337891,4.9199218 C25.9033203,5.2646484 25.1816406,5.6289063 24.4716797,6.0107422 Z" id="Shape"></path>
                <path d="M24.0888672,85.7822266 C24.796875,86.171875 25.5166016,86.5449219 26.2480469,86.897461 L26.5957032,86.1767579 C25.8779298,85.8300782 25.1699219,85.4648438 24.475586,85.0810548 L24.0888672,85.7822266 Z" id="Shape"></path>
                <path d="M90.2460937,40.3154297 L91.0390625,40.2138672 C90.9365234,39.4082031 90.8134766,38.609375 90.6699219,37.8173828 L89.8828125,37.9599609 C90.0244141,38.7382813 90.1455078,39.5234375 90.2460937,40.3154297 Z" id="Shape"></path>
                <path d="M1.4082031,46.9423828 L0.6074218,46.9580078 C0.6240234,47.7705078 0.6611327,48.5791016 0.7207031,49.3818359 L1.5175781,49.3232421 C1.4599609,48.5341797 1.4228516,47.7412109 1.4082031,46.9423828 Z" id="Shape"></path>
                <path d="M3.2832031,33.1191406 L2.5175781,32.8886718 C2.2861328,33.6611327 2.0742187,34.4414062 1.8828125,35.2314452 L2.6601563,35.4189452 C2.8476562,34.6445313 3.0556641,33.8779297 3.2832031,33.1191406 Z" id="Shape"></path>
                <path d="M1.5527344,42.2763672 L0.7558594,42.2099609 C0.6904297,42.9970703 0.6455078,43.7890625 0.6210938,44.5742187 L0.6191407,44.6445312 L1.419922,44.6123046 C1.4443359,43.828125 1.4892578,43.0498047 1.5527344,42.2763672 Z" id="Shape"></path>
                <path d="M2.1787109,37.6523438 L1.3916015,37.5039063 C1.243164,38.2939454 1.1142577,39.0927735 1.0058593,39.8984376 L1.7988281,40.0058595 C1.9052734,39.2138672 2.0322266,38.4287109 2.1787109,37.6523438 Z" id="Shape"></path>
                <path d="M33.2373047,2.4140625 L33.4619141,3.1816406 C34.2226563,2.9599609 34.991211,2.7578125 35.7666016,2.5761718 L35.584961,1.7968749 C34.7939453,1.9824219 34.0117187,2.1884766 33.2373047,2.4140625 Z" id="Shape"></path>
                <path d="M89.4150391,35.7246094 L90.194336,35.5410156 C90.0078126,34.7509765 89.8007813,33.96875 89.5742188,33.1953125 L88.8066407,33.4199219 C89.0292969,34.1796875 89.2324219,34.9482422 89.4150391,35.7246094 Z" id="Shape"></path>
                <path d="M88.8632812,30.9814453 C88.5957031,30.2177734 88.3085937,29.4628906 88.0019531,28.7177734 L87.2617187,29.0224609 C87.5625,29.7539062 87.8457031,30.4951172 88.1074218,31.2451172 L88.8632812,30.9814453 Z" id="Shape"></path>
                <path d="M1.7441406,51.5976563 L0.9492187,51.6953126 C1.0478515,52.4873048 1.1699218,53.294922 1.3144531,54.0947267 L2.1015625,53.9521486 C1.9609375,53.1738281 1.8417969,52.3876953 1.7441406,51.5976563 Z" id="Shape"></path>
                <path d="M4.8984375,65.3251953 C5.2421875,66.0576172 5.6064453,66.7792969 5.9882813,67.4892578 L6.6933594,67.1103515 C6.3173828,66.4121093 5.9609375,65.7041015 5.6230469,64.9853515 L4.8984375,65.3251953 Z" id="Shape"></path>
                <path d="M5.0820312,26.2890625 L5.8027343,26.6367188 C6.149414,25.9189454 6.5136718,25.2109375 6.8964843,24.5146485 L6.1953124,24.1298829 C5.8066406,24.8378906 5.4345703,25.5585938 5.0820312,26.2890625 Z" id="Shape"></path>
                <path d="M3.2441406,30.6796875 L3.9980469,30.9492188 C4.2666016,30.1972657 4.5556641,29.4550782 4.8623047,28.7226563 L4.1240234,28.4140625 C3.8115234,29.1582031 3.5185547,29.9140625 3.2441406,30.6796875 Z" id="Shape"></path>
                <path d="M7.1416016,69.5058594 C7.5605469,70.1982422 7.9980469,70.8779297 8.4521485,71.5458985 L9.1142579,71.0947266 C8.6679688,70.4404297 8.2382813,69.772461 7.8271485,69.0917969 L7.1416016,69.5058594 Z" id="Shape"></path>
                <path d="M3.1074219,60.9335938 C3.3720703,61.6972657 3.6582032,62.4531251 3.9638672,63.1992188 L4.7041016,62.8964844 C4.4042969,62.1640625 4.1240235,61.421875 3.8632813,60.671875 L3.1074219,60.9335938 Z" id="Shape"></path>
                <path d="M2.5634766,56.1904297 L1.7841797,56.3720703 C1.96875,57.1611328 2.1738281,57.9433594 2.3994141,58.71875 L3.1669922,58.4941406 C2.9453125,57.734375 2.7441406,56.9658203 2.5634766,56.1904297 Z" id="Shape"></path>
                <path d="M90.5888672,44.96875 L91.3896485,44.9511719 C91.3710938,44.1386719 91.3320313,43.3310547 91.2714844,42.5283203 L90.4746094,42.5888672 C90.5332031,43.3759766 90.5722656,44.1699219 90.5888672,44.96875 Z" id="Shape"></path>
                <path d="M82.6904297,71.3837891 L83.3486328,71.8388672 C83.8085937,71.1748047 84.2519531,70.4970703 84.6777344,69.8066406 L83.9960938,69.3867187 C83.578125,70.0654297 83.1425781,70.7314453 82.6904297,71.3837891 Z" id="Shape"></path>
                <path d="M80.0058594,17.125 C80.5195313,17.7304688 81.0185547,18.3496094 81.5,18.9814453 L82.1367188,18.4970703 C81.6455079,17.8535156 81.1386719,17.2226562 80.6152344,16.6074219 L80.0058594,17.125 Z" id="Shape"></path>
                <path d="M76.8027344,13.7304688 C77.3779297,14.2792969 77.9384766,14.8437501 78.4824219,15.4228516 L79.0644532,14.8740235 C78.5107423,14.2851563 77.9404298,13.7109376 77.3554688,13.1523438 L76.8027344,13.7304688 Z" id="Shape"></path>
                <path d="M79.8339844,75.0771484 L80.4414063,75.5986328 C80.9677735,74.9863281 81.4794922,74.3583984 81.9736329,73.7167969 L81.3408204,73.2285156 C80.8544922,73.8583984 80.3525391,74.4746094 79.8339844,75.0771484 Z" id="Shape"></path>
                <path d="M73.0517578,81.4736328 L73.5380859,82.1083984 C74.180664,81.6171875 74.8105468,81.1103515 75.4257812,80.5859375 L74.9082031,79.9765625 C74.3027344,80.4912109 73.6845703,80.9902344 73.0517578,81.4736328 Z" id="Shape"></path>
                <path d="M76.609375,78.4521484 L77.1582031,79.0341797 C77.7460937,78.4794922 78.3193359,77.9091797 78.8789062,77.3232422 L78.2988281,76.7705078 C77.7509766,77.3466797 77.1875,77.9072266 76.609375,78.4521484 Z" id="Shape"></path>
                <path d="M73.2617187,10.6855469 C73.8916015,11.1728516 74.5068359,11.6757813 75.109375,12.194336 L75.6308594,11.5869141 C75.0185547,11.0605469 74.3916016,10.5478516 73.7519531,10.0527344 L73.2617187,10.6855469 Z" id="Shape"></path>
                <path d="M88.7402344,58.7978516 L89.5078125,59.0244141 C89.7363281,58.2529297 89.9472656,57.4716797 90.1367188,56.6826172 L89.359375,56.4951172 C89.171875,57.2705078 88.9648437,58.0380859 88.7402344,58.7978516 Z" id="Shape"></path>
                <path d="M89.8369141,54.2617188 L90.6240235,54.4082032 C90.7714844,53.6171876 90.8984376,52.8183594 91.0048829,52.0126954 L90.2119141,51.9072266 C90.1074219,52.6992188 89.9824219,53.484375 89.8369141,54.2617188 Z" id="Shape"></path>
                <path d="M90.5791016,47.3876953 C90.5556641,48.1416016 90.5136719,48.890625 90.453125,49.6367187 L91.25,49.7011718 C91.3125,48.9433593 91.3544922,48.180664 91.3779297,47.4179687 L91.3828125,47.2753906 L90.5820312,47.2578125 L90.5791016,47.3876953 Z" id="Shape"></path>
                <path d="M69.4228516,8.0283203 C70.100586,8.4462891 70.7666016,8.8828125 71.4189454,9.3349609 L71.8740235,8.6767578 C71.209961,8.2167969 70.5322266,7.7724609 69.8427735,7.3466797 L69.4228516,8.0283203 Z" id="Shape"></path>
                <path d="M85.2646484,24.8125 C85.640625,25.5087891 86,26.2177734 86.3398437,26.9355469 L87.0625,26.59375 C86.7167969,25.8623047 86.3515625,25.1416016 85.9677734,24.4316406 L85.2646484,24.8125 Z" id="Shape"></path>
                <path d="M87.1708984,63.1953125 L87.9091797,63.5039063 C88.2167969,62.7714844 88.5107422,62.0078125 88.7851563,61.2353516 L88.03125,60.9677735 C87.7617187,61.7265625 87.4726562,62.4755859 87.1708984,63.1953125 Z" id="Shape"></path>
                <path d="M85.1455078,67.4072266 L85.8466797,67.7919922 C86.2294922,67.0957031 86.6025391,66.3681641 86.9560547,65.6298828 L86.2353516,65.2841797 C85.8876953,66.0097656 85.5205078,66.7236328 85.1455078,67.4072266 Z" id="Shape"></path>
                <path d="M82.8378906,20.8320313 C83.2861328,21.4873047 83.7167969,22.1542969 84.1289062,22.8330079 L84.8125,22.4189454 C84.3925781,21.7265626 83.9541016,21.0478516 83.4980469,20.3808595 L82.8378906,20.8320313 Z" id="Shape"></path>
                <path d="M42.2324219,90.4433594 L42.1660156,91.2402344 C42.9667969,91.3066407 43.774414,91.3525391 44.5859375,91.3779297 L44.7636719,91.3837891 L44.7890625,90.584961 L44.6123047,90.5791016 C43.8134766,90.5537109 43.0195312,90.5078125 42.2324219,90.4433594 Z" id="Shape"></path>
                <path d="M51.9501953,1.7949219 C52.7421875,1.9003907 53.5263519,2.0263672 54.3027344,2.1728516 L54.4511719,1.3857422 C53.6611328,1.2373047 52.8613281,1.109375 52.0556641,1.0019531 L51.9501953,1.7949219 Z" id="Shape"></path>
                <path d="M51.7265625,90.2382813 L51.828125,91.0312501 C52.6337891,90.928711 53.4326172,90.8046876 54.2255859,90.6601563 L54.0810546,89.8730469 C53.3037109,90.015625 52.5185547,90.1376953 51.7265625,90.2382813 Z" id="Shape"></path>
                <path d="M47.0751953,90.5878906 L47.0927734,91.3886719 C47.9052734,91.3701172 48.7138672,91.3300781 49.515625,91.2685547 L49.4550781,90.4716797 C48.6669922,90.53125 47.8740234,90.5712891 47.0751953,90.5878906 Z" id="Shape"></path>
                <path d="M47.3105469,1.0185547 L47.3867188,1.4208985 C48.1562501,1.4453126 48.9199219,1.4892579 49.6796876,1.5507813 L49.7441407,0.7539063 C48.9726563,0.6904297 48.1953126,0.6464844 47.4121094,0.6220704 L47.3105469,1.0185547 Z" id="Shape"></path>
                <path d="M42.5732422,0.7246094 L42.631836,1.5214844 C43.4208985,1.4638672 44.2148438,1.4257813 45.0126954,1.4101563 L44.9970704,0.609375 C44.1835937,0.6269531 43.3759766,0.6650391 42.5732422,0.7246094 Z" id="Shape"></path>
                <path d="M37.8603516,1.3242188 L38.0029297,2.1113282 C38.7822266,1.9707032 39.5673828,1.850586 40.3583985,1.7509766 L40.2587891,0.9580078 C39.4541016,1.0595703 38.6533203,1.1816406 37.8603516,1.3242188 Z" id="Shape"></path>
                <path d="M37.4589844,90.5976563 C38.25,90.7480469 39.0478516,90.8779297 39.8535157,90.9863282 L39.9609376,90.1933594 C39.1689454,90.0869141 38.3847657,89.9589844 37.607422,89.8125 L37.4589844,90.5976563 Z" id="Shape"></path>
                <path d="M60.7958984,88.09375 L61.0615234,88.8476563 C61.8242187,88.5800782 62.5791015,88.2919922 63.3232422,87.9853516 L63.0185547,87.2451172 C62.2861328,87.5478516 61.5449219,87.8300781 60.7958984,88.09375 Z" id="Shape"></path>
                <path d="M56.3173828,89.4042969 L56.5009766,90.1835938 C57.2900391,89.9970704 58.0732422,89.7890625 58.8466797,89.5615235 L58.6201172,88.7939454 C57.8603516,89.0175781 57.0927734,89.2216797 56.3173828,89.4042969 Z" id="Shape"></path>
                <path d="M65.1015625,86.3203125 L65.4453125,87.0429688 C66.1757813,86.6962891 66.8964844,86.3310547 67.6054688,85.9462891 L67.2246094,85.2431641 C66.5273437,85.6201172 65.8203125,85.9794922 65.1015625,86.3203125 Z" id="Shape"></path>
                <path d="M65.3242187,5.7841797 C66.0429687,6.1298828 66.75,6.4941406 67.446289,6.8759766 L67.8310546,6.1748047 C67.1230468,5.7851563 66.4023437,5.4150391 65.6699218,5.0634766 L65.3242187,5.7841797 Z" id="Shape"></path>
                <path d="M61.0078125,3.984375 C61.7597656,4.2519531 62.5029297,4.5400391 63.2353516,4.8466797 L63.5439454,4.1083984 C62.7978516,3.7958984 62.0429688,3.5039062 61.2773438,3.2304687 L61.0078125,3.984375 Z" id="Shape"></path>
                <path d="M56.5371094,2.6503906 C57.3125,2.8378906 58.0800782,3.0458984 58.8378907,3.2714844 L59.0664063,2.5058594 C58.2949219,2.2744141 57.5136719,2.0644531 56.7246094,1.8730469 L56.5371094,2.6503906 Z" id="Shape"></path>
                <path d="M69.203125,84.1044922 L69.6191406,84.788086 C70.3095703,84.3671876 70.9882812,83.9277344 71.6542969,83.4716797 L71.203125,82.8115234 C70.5488281,83.2597656 69.8818359,83.6914063 69.203125,84.1044922 Z" id="Shape"></path>
            </g>
        </g>
    </g>
</svg>