<?xml version="1.0" encoding="UTF-8"?>
<svg width="27px" height="24px" viewBox="0 0 27 24" version="1.1" xmlns="http://www.w3.org/2000/svg" xmlns:xlink="http://www.w3.org/1999/xlink">
    <!-- Generator: Sketch 50.2 (55047) - http://www.bohemiancoding.com/sketch -->
    <title>hetromb-iconoindice-fav1</title>
    <desc>Created with Sketch.</desc>
    <defs></defs>
    <g id="Page-1" stroke="none" stroke-width="1" fill="none" fill-rule="evenodd">
        <g id="hetromb-iconoindice-fav1" fill-rule="nonzero">
            <path d="M13.74,23.482 C13.646268,23.482042 13.5540578,23.4583013 13.472,23.413 C13.4431351,23.3970602 13.4156999,23.3786586 13.39,23.358 C13.342,23.323 13.197,23.222 12.982,23.073 C12.115,22.473 10.082,21.055 8.751,20.026 C3.73,16.12 1.063,13.226 0.595,11.173 C0.347378403,10.3968666 0.218917273,9.58766267 0.214,8.773 C0.170288778,6.55881202 1.00639994,4.41764822 2.539,2.819 C3.85319914,1.45515012 5.6610732,0.677721019 7.555,0.662 C9.87952435,0.646867302 12.0754682,1.72724053 13.482,3.578 C14.8352741,1.68528456 17.0084591,0.549495597 19.335,0.519 L19.475,0.519 C23.502,0.519 26.823,4.073 26.875,8.441 C26.8880988,9.27215051 26.7754936,10.1005067 26.541,10.898 C26.141,12.91 23.479,15.963 18.641,19.924 C17.1751305,21.1706472 15.6382186,22.3312611 14.038,23.4 C13.9483216,23.4569687 13.8442432,23.4871514 13.738,23.487 L13.74,23.482 Z" id="Shape" fill="#BB4139"></path>
            <path d="M22.539,10.6 C22.3713974,10.600245 22.2126271,10.5248719 22.1068649,10.3948524 C22.0011028,10.2648329 21.9596352,10.0940419 21.994,9.93 L22.077,9.594 C22.181584,9.23960447 22.2321521,8.87146917 22.227,8.502 C22.3509089,6.8065207 21.0887677,5.32644617 19.395,5.181 C19.1909167,5.1896609 18.9985179,5.0857182 18.8938937,4.91027936 C18.7892696,4.73484052 18.7892696,4.51615948 18.8938937,4.34072064 C18.9985179,4.1652818 19.1909167,4.0613391 19.395,4.07 C21.700937,4.20799219 23.4625784,6.18229947 23.338,8.489 C23.3441016,8.96696528 23.2790561,9.4431787 23.145,9.902 L23.082,10.159 C23.0280772,10.4159213 22.801519,10.5999216 22.539,10.6 Z" id="Shape" fill="#FFFFFF"></path>
        </g>
    </g>
</svg>